# xmcd CD database file
#
# Track frame offsets:
#	150
#	11569
#	27493
#	42141
#	57596
#	74222
#	88742
#	105510
#	119937
#	136675
#	155287
#
# Disc length: 2297 seconds
#
# Revision: 0
# Processed by: cddbd v1.5.2PL0 Copyright (c) Steve Scherf et al.
# Submitted via: CDex 1.51
#
DISCID=9b08f70b
DTITLE=Little Big Town - Tornado
DYEAR=2012
DGENRE=Country
TTITLE0=Pavement Ends
TTITLE1=Pontoon
TTITLE2=Sober
TTITLE3=Front Porch Thing
TTITLE4=Your Side Of The Bed
TTITLE5=Leavin' In Your Eyes
TTITLE6=Tornado
TTITLE7=On Fire Tonight
TTITLE8=Can't Go Back
TTITLE9=Self Made
TTITLE10=Night Owl
EXTD=YEAR: 2012
EXTT0=
EXTT1=
EXTT2=
EXTT3=
EXTT4=
EXTT5=
EXTT6=
EXTT7=
EXTT8=
EXTT9=
EXTT10=
PLAYORDER=
